<svg width="15" height="13" viewBox="0 0 15 13" fill="none" xmlns="http://www.w3.org/2000/svg">
<path d="M14.8847 6.62105C14.8847 6.42872 14.8078 6.25179 14.6539 6.10562L9.5535 1.02058C9.38425 0.851337 9.2227 0.789794 9.03807 0.789794C8.66112 0.789794 8.36878 1.06674 8.36878 1.45139C8.36878 1.63602 8.43033 1.81296 8.55341 1.93604L10.2766 3.69003L12.8615 6.05177L11.0075 5.93637H1.27589C0.875854 5.93637 0.598908 6.22101 0.598908 6.62105C0.598908 7.02108 0.875854 7.30572 1.27589 7.30572H11.0075L12.8692 7.19032L10.2766 9.55206L8.55341 11.3061C8.43033 11.4214 8.36878 11.6061 8.36878 11.7907C8.36878 12.1754 8.66112 12.4523 9.03807 12.4523C9.2227 12.4523 9.38425 12.3831 9.53811 12.2369L14.6539 7.13647C14.8078 6.99031 14.8847 6.81337 14.8847 6.62105Z" fill="#5E5E63"/>
</svg>
